<svg width="568" height="275" xmlns="http://www.w3.org/2000/svg" xmlns:xlink="http://www.w3.org/1999/xlink" overflow="hidden"><defs><clipPath id="clip0"><rect x="195" y="191" width="566" height="273"/></clipPath><clipPath id="clip1"><rect x="195" y="191" width="566" height="273"/></clipPath><clipPath id="clip2"><rect x="195" y="191" width="566" height="273"/></clipPath><linearGradient x1="276.384" y1="317.178" x2="89.6479" y2="-6.25776" gradientUnits="userSpaceOnUse" spreadMethod="pad" id="fill3"><stop offset="0" stop-color="#333333"/><stop offset="1" stop-color="#4D4D4D"/></linearGradient></defs><g transform="translate(-194 -190)"><g clip-path="url(#clip0)"><g clip-path="url(#clip1)"><g clip-path="url(#clip2)"><path d="M0 53.0833 121.333 53.0833 121.333 0 15.1667 0C6.825 0 0 6.825 0 15.1667Z" fill="#CCCCCC" transform="matrix(1.55495 0 0 1 195 191)"/><path d="M242.667 0 121.333 0 121.333 53.0833 242.667 53.0833Z" fill="#999999" transform="matrix(1.55495 0 0 1 195 191)"/><path d="M364 53.0833 242.667 53.0833 242.667 0 348.833 0C357.175 0 364 6.825 364 15.1667Z" fill="#666666" transform="matrix(1.55495 0 0 1 195 191)"/><path d="M348.833 273 15.1667 273C6.825 273 0 266.175 0 257.833L0 45.5 364 45.5 364 257.833C364 266.175 357.175 273 348.833 273Z" fill="url(#fill3)" transform="matrix(1.55495 0 0 1 195 191)"/></g></g></g><text fill="#FFFFFF" font-family="Fira Code,Fira Code_MSFontService,sans-serif" font-weight="400" font-size="24" transform="translate(227.441 275)">#</text><text fill="#FFFFFF" font-family="Fira Code,Fira Code_MSFontService,sans-serif" font-weight="400" font-size="24" transform="translate(247.275 275)">&gt;</text><text fill="#16C60C" font-family="Fira Code,Fira Code_MSFontService,sans-serif" font-weight="400" font-size="24" transform="translate(276.941 275)">$</text><text fill="#16C60C" font-family="Fira Code,Fira Code_MSFontService,sans-serif" font-weight="400" font-size="24" transform="translate(291.775 275)">eventData</text><text fill="#FFFFFF" font-family="Fira Code,Fira Code_MSFontService,sans-serif" font-weight="400" font-size="24" transform="translate(440.108 275)">=</text><text fill="#FFFFFF" font-family="Fira Code,Fira Code_MSFontService,sans-serif" font-weight="400" font-size="24" transform="translate(271.941 303)">@{</text><text fill="#3A96DC" font-family="Fira Code,Fira Code_MSFontService,sans-serif" font-weight="400" font-size="24" transform="translate(301.608 332)">'date' = '2023</text><text fill="#3A96DC" font-family="Fira Code,Fira Code_MSFontService,sans-serif" font-weight="400" font-size="24" transform="translate(509.275 332)">-</text><text fill="#3A96DC" font-family="Fira Code,Fira Code_MSFontService,sans-serif" font-weight="400" font-size="24" transform="translate(524.108 332)">09</text><text fill="#3A96DC" font-family="Fira Code,Fira Code_MSFontService,sans-serif" font-weight="400" font-size="24" transform="translate(553.775 332)">-</text><text fill="#3A96DC" font-family="Fira Code,Fira Code_MSFontService,sans-serif" font-weight="400" font-size="24" transform="translate(568.608 332)">16 10:00'</text><text fill="#3A96DC" font-family="Fira Code,Fira Code_MSFontService,sans-serif" font-weight="400" font-size="24" transform="translate(301.608 361)">'location' = 'Hannover'</text><text fill="#FFFFFF" font-family="Fira Code,Fira Code_MSFontService,sans-serif" font-weight="400" font-size="24" transform="translate(271.941 390)">}</text><text fill="#FFFFFF" font-family="Fira Code,Fira Code_MSFontService,sans-serif" font-weight="400" font-size="24" transform="translate(227.441 419)">#</text><text fill="#FFFFFF" font-family="Fira Code,Fira Code_MSFontService,sans-serif" font-weight="400" font-size="24" transform="translate(247.275 419)">&gt;</text><text fill="#E0DA97" font-family="Fira Code,Fira Code_MSFontService,sans-serif" font-weight="400" font-size="24" transform="translate(276.941 419)">New</text><text fill="#E0DA97" font-family="Fira Code,Fira Code_MSFontService,sans-serif" font-weight="400" font-size="24" transform="translate(321.441 419)">-</text><text fill="#E0DA97" font-family="Fira Code,Fira Code_MSFontService,sans-serif" font-weight="400" font-size="24" transform="translate(336.275 419)">PSSat</text><text fill="#16C60C" font-family="Fira Code,Fira Code_MSFontService,sans-serif" font-weight="400" font-size="24" transform="translate(425.275 419)">@eventData</text></g></svg>