<svg width="622" height="467" xmlns="http://www.w3.org/2000/svg" xmlns:xlink="http://www.w3.org/1999/xlink" overflow="hidden"><defs><linearGradient x1="470.763" y1="540.249" x2="152.697" y2="-10.6588" gradientUnits="userSpaceOnUse" spreadMethod="pad" id="fill0"><stop offset="0" stop-color="#333333"/><stop offset="1" stop-color="#4D4D4D"/></linearGradient></defs><g transform="translate(-327 -180)"><g><g><g><path d="M0 90.4167 206.667 90.4167 206.667 0 25.8333 0C11.625 0 0 11.625 0 25.8333Z" fill="#CCCCCC" transform="matrix(1 0 0 1.00215 328 181)"/><path d="M413.333 0 206.667 0 206.667 90.4167 413.333 90.4167Z" fill="#999999" transform="matrix(1 0 0 1.00215 328 181)"/><path d="M620 90.4167 413.333 90.4167 413.333 0 594.167 0C608.375 0 620 11.625 620 25.8333Z" fill="#666666" transform="matrix(1 0 0 1.00215 328 181)"/><path d="M594.167 465 25.8333 465C11.625 465 0 453.375 0 439.167L0 77.5 620 77.5 620 439.167C620 453.375 608.375 465 594.167 465Z" fill="url(#fill0)" transform="matrix(1 0 0 1.00215 328 181)"/></g></g></g><text fill="#FFFFFF" font-family="Fira Code,Fira Code_MSFontService,sans-serif" font-weight="400" font-size="40" transform="translate(352.267 337)">#</text><text fill="#FFFFFF" font-family="Fira Code,Fira Code_MSFontService,sans-serif" font-weight="400" font-size="40" transform="translate(384.267 337)">&gt;</text><text fill="#E0DA97" font-family="Fira Code,Fira Code_MSFontService,sans-serif" font-weight="400" font-size="40" transform="translate(433.6 337)">Get</text><text fill="#E0DA97" font-family="Fira Code,Fira Code_MSFontService,sans-serif" font-weight="400" font-size="40" transform="translate(507.6 337)">-</text><text fill="#E0DA97" font-family="Fira Code,Fira Code_MSFontService,sans-serif" font-weight="400" font-size="40" transform="translate(532.267 337)">PSSatDate</text><text fill="#FFFFFF" font-family="Fira Code,Fira Code_MSFontService,sans-serif" font-weight="400" font-size="37" transform="translate(352.267 431)">Samstag, 16. September</text><text fill="#FFFFFF" font-family="Fira Code,Fira Code_MSFontService,sans-serif" font-weight="400" font-size="37" transform="translate(352.267 475)">2023</text><text fill="#FFFFFF" font-family="Fira Code,Fira Code_MSFontService,sans-serif" font-weight="400" font-size="37" transform="translate(467.267 475)">1</text><text fill="#FFFFFF" font-family="Fira Code,Fira Code_MSFontService,sans-serif" font-weight="400" font-size="37" transform="translate(490.267 475)">0:00:00</text></g></svg>