<?xml version="1.0" encoding="utf-8"?>
<!-- Generator: Adobe Illustrator 27.8.1, SVG Export Plug-In . SVG Version: 6.00 Build 0)  -->
<svg version="1.1" id="Ebene_1" xmlns="http://www.w3.org/2000/svg" xmlns:xlink="http://www.w3.org/1999/xlink" x="0px" y="0px"
	 viewBox="0 0 860 540" style="enable-background:new 0 0 860 540;" xml:space="preserve">
<style type="text/css">
	.st0{fill-rule:evenodd;clip-rule:evenodd;fill:#F07E04;}
	.st1{fill:#8F7570;}
	.st2{fill:#F07E04;}
	.st3{fill-rule:evenodd;clip-rule:evenodd;fill:#8F7570;}
</style>
<g>
	<path class="st0" d="M322.4,418.06l65.66-31.27l66.51,30.93l-66.37,38.32L322.4,418.06L322.4,418.06z M456.41,424.96v73.1
		l-64.62,35.06v-70.85L456.41,424.96L456.41,424.96z M384.61,462.27v70.96l-63.3-35.17v-72.34L384.61,462.27L384.61,462.27z"/>
	<polygon class="st1" points="646.38,477.09 646.38,685.74 680.2,685.74 680.2,539.63 680.71,539.63 725.79,685.74 767.8,685.74 
		767.8,477.09 733.99,477.09 733.99,619.99 733.47,619.99 688.9,477.09 646.38,477.09 	"/>
	<path class="st1" d="M892.54,613.27v-9.06c0-48.22-9.22-79.78-50.46-79.78c-47.64,0-54.82,39.16-54.82,81.24
		c0,39.16,2.05,84.16,53.28,84.16c33.3,0,48.67-20.46,49.95-56.98h-31.76c-2.05,19.29-6.92,29.52-18.7,29.52
		c-13.06,0-17.42-18.12-17.42-36.53v-12.57H892.54L892.54,613.27z M822.61,589.3v-6.14c0-14.61,4.1-31.27,18.19-31.27
		c14.6,0,17.16,13.44,17.93,37.41H822.61L822.61,589.3z"/>
	<path class="st1" d="M918.67,528.52h-17.93v27.47h17.93V646c0,31.85,5.12,41.5,32.79,41.5c8.2,0,15.37-0.88,23.05-1.75v-28.05
		c-2.31,0.29-5.12,0.58-7.94,0.58c-10.25,0-12.55-4.97-12.55-17.24v-85.04h20.49v-27.47h-20.49v-45h-35.35V528.52L918.67,528.52z"/>
	<polygon class="st1" points="981.17,685.74 1078,685.74 1078,653.01 1022.92,653.01 1078,559.5 1078,528.52 983.73,528.52 
		983.73,561.25 1036.24,561.25 981.17,654.76 981.17,685.74 	"/>
	<polygon class="st1" points="1095.41,584.04 1095.41,618.53 1167.65,618.53 1167.65,584.04 1095.41,584.04 	"/>
	<polygon class="st1" points="1214.27,685.74 1255.51,685.74 1276,534.37 1276.51,534.37 1297,685.74 1338.24,685.74 
		1371.54,477.09 1336.19,477.09 1315.96,631.39 1315.45,631.39 1293.93,477.09 1258.58,477.09 1237.06,631.39 1236.55,631.39 
		1216.32,477.09 1180.97,477.09 1214.27,685.74 	"/>
	<path class="st1" d="M1480.92,613.27v-9.06c0-48.22-9.22-79.78-50.46-79.78c-47.64,0-54.82,39.16-54.82,81.24
		c0,39.16,2.05,84.16,53.28,84.16c33.3,0,48.67-20.46,49.95-56.98h-31.76c-2.05,19.29-6.92,29.52-18.7,29.52
		c-13.06,0-17.42-18.12-17.42-36.53v-12.57H1480.92L1480.92,613.27z M1410.99,589.3v-6.14c0-14.61,4.1-31.27,18.19-31.27
		c14.6,0,17.16,13.44,17.93,37.41H1410.99L1410.99,589.3z"/>
	<path class="st1" d="M1500.64,685.74h35.35V528.52h-35.35V685.74L1500.64,685.74z M1500.64,509.23h35.35v-34.48h-35.35V509.23
		L1500.64,509.23z"/>
	<path class="st1" d="M1554.95,634.31v5.55c0,30.1,11.01,49.97,50.72,49.97c29.71,0,51.23-16.37,51.23-49.39
		c0-23.67-8.2-36.53-30.48-45l-21.26-8.18c-11.78-4.38-15.37-10.81-15.37-18.41c0-11.1,7.68-16.95,16.65-16.95
		c11.53,0,15.62,7.89,15.62,23.67h31.76v-6.43c0-28.35-15.11-44.71-47.13-44.71c-36.37,0-50.72,21.33-50.72,47.34
		c0,22.21,9.99,35.94,29.46,43.83l24.85,10.23c6.92,2.92,12.81,7.6,12.81,17.83c0,12.56-7.17,18.7-17.93,18.7
		c-12.04,0-18.44-9.06-18.44-22.79v-5.26H1554.95L1554.95,634.31z"/>
	<path class="st1" d="M1774.72,613.27v-9.06c0-48.22-9.22-79.78-50.46-79.78c-47.64,0-54.82,39.16-54.82,81.24
		c0,39.16,2.05,84.16,53.28,84.16c33.3,0,48.67-20.46,49.95-56.98h-31.76c-2.05,19.29-6.92,29.52-18.7,29.52
		c-13.06,0-17.42-18.12-17.42-36.53v-12.57H1774.72L1774.72,613.27z M1704.79,589.3v-6.14c0-14.61,4.1-31.27,18.19-31.27
		c14.6,0,17.16,13.44,17.93,37.41H1704.79L1704.79,589.3z"/>
	<polygon class="st2" points="688.03,817.07 688.03,805.92 661.93,805.92 661.93,749.62 647.19,749.62 647.19,817.07 688.03,817.07 
			"/>
	<path class="st2" d="M742.53,793.64v-2.93c0-15.59-3.68-25.79-20.16-25.79c-19.04,0-21.9,12.66-21.9,26.26
		c0,12.66,0.82,27.21,21.29,27.21c13.3,0,19.45-6.61,19.96-18.42h-12.69c-0.82,6.24-2.76,9.54-7.47,9.54
		c-5.22,0-6.96-5.86-6.96-11.81v-4.06H742.53L742.53,793.64z M714.59,785.89v-1.98c0-4.72,1.64-10.11,7.27-10.11
		c5.83,0,6.86,4.35,7.16,12.09H714.59L714.59,785.89z"/>
	<path class="st2" d="M758.25,817.07h14.12v-30.52c0-6.8,5.53-9.16,10.44-9.16c1.43,0,2.97,0.09,4.4,0.19v-12.47
		c-0.82-0.09-1.74-0.19-2.56-0.19c-5.83,0-9.83,3.21-12.69,8.12h-0.2v-6.8h-13.51V817.07L758.25,817.07z"/>
	<path class="st2" d="M800.69,817.07h14.12v-33.73c0-5.67,2.66-8.41,7.47-8.41c4.2,0,6.04,1.98,6.04,7.09v35.05h14.12v-37.7
		c0-10.01-5.22-14.45-14.02-14.45c-5.94,0-11.05,2.27-14.02,7.27h-0.2v-5.95h-13.51V817.07L800.69,817.07z"/>
	<path class="st2" d="M900.23,793.64v-2.93c0-15.59-3.68-25.79-20.16-25.79c-19.04,0-21.9,12.66-21.9,26.26
		c0,12.66,0.82,27.21,21.29,27.21c13.3,0,19.45-6.61,19.96-18.42h-12.69c-0.82,6.24-2.76,9.54-7.47,9.54
		c-5.22,0-6.96-5.86-6.96-11.81v-4.06H900.23L900.23,793.64z M872.29,785.89v-1.98c0-4.72,1.64-10.11,7.27-10.11
		c5.83,0,6.86,4.35,7.16,12.09H872.29L872.29,785.89z"/>
	<path class="st2" d="M915.95,817.07h14.12v-33.73c0-5.67,2.66-8.41,7.47-8.41c4.2,0,6.04,1.98,6.04,7.09v35.05h14.12v-37.7
		c0-10.01-5.22-14.45-14.02-14.45c-5.94,0-11.05,2.27-14.02,7.27h-0.2v-5.95h-13.51V817.07L915.95,817.07z"/>
	<polygon class="st2" points="1031.18,802.62 1030.98,802.62 1023.1,766.24 1008.36,766.24 1022.59,817.07 1038.96,817.07 
		1052.78,766.24 1038.66,766.24 1031.18,802.62 	"/>
	<path class="st2" d="M1064.51,791.66c0,17.67,4.71,27.02,21.7,26.74c16.17,0,21.7-9.35,21.7-26.74c0-17.67-4.71-27.02-21.7-26.74
		C1070.03,764.92,1064.51,774.27,1064.51,791.66L1064.51,791.66z M1078.63,791.66c0-10.39,0.61-17.86,7.57-17.86
		c5.73,0,7.57,5.2,7.57,17.86c0,12.66-1.84,17.86-7.57,17.86C1079.24,809.51,1078.63,802.05,1078.63,791.66L1078.63,791.66z"/>
	<path class="st2" d="M1123.83,817.07h14.12v-33.73c0-5.67,2.66-8.41,7.47-8.41c4.2,0,6.04,1.98,6.04,7.09v35.05h14.12v-37.7
		c0-10.01-5.22-14.45-14.02-14.45c-5.94,0-11.05,2.27-14.02,7.27h-0.2v-5.95h-13.51V817.07L1123.83,817.07z"/>
	<path class="st2" d="M1233.23,791.66c0-11.05,1.23-16.72,7.37-16.72c6.24,0,7.47,5.67,7.47,16.72c0,11.05-1.23,16.72-7.47,16.72
		C1234.46,808.38,1233.23,802.71,1233.23,791.66L1233.23,791.66z M1248.69,817.07h13.51v-67.46h-14.12v21.35h-0.2
		c-2.97-4.06-6.55-6.05-11.87-6.05c-11.56,0-16.89,7.84-16.89,26.74c0,18.9,5.32,26.74,16.89,26.74c5.53,0,9.42-1.98,12.49-6.71h0.2
		V817.07L1248.69,817.07z"/>
	<path class="st2" d="M1319.98,793.64v-2.93c0-15.59-3.68-25.79-20.16-25.79c-19.04,0-21.9,12.66-21.9,26.26
		c0,12.66,0.82,27.21,21.29,27.21c13.31,0,19.45-6.61,19.96-18.42h-12.69c-0.82,6.24-2.76,9.54-7.47,9.54
		c-5.22,0-6.96-5.86-6.96-11.81v-4.06H1319.98L1319.98,793.64z M1292.04,785.89v-1.98c0-4.72,1.64-10.11,7.27-10.11
		c5.83,0,6.86,4.35,7.16,12.09H1292.04L1292.04,785.89z"/>
	<path class="st2" d="M1335.7,817.07h14.12v-33.73c0-5.67,2.66-8.41,7.47-8.41c4.2,0,6.04,1.98,6.04,7.09v35.05h14.12v-37.7
		c0-10.01-5.22-14.45-14.02-14.45c-5.94,0-11.05,2.27-14.02,7.27h-0.2v-5.95h-13.51V817.07L1335.7,817.07z"/>
	<path class="st2" d="M1432.72,817.07h24.87c17.19,0,22.82-9.16,22.82-19.75c0-8.98-5.22-14.64-13.3-15.68v-0.19
		c7.27-1.89,11.05-7.46,11.05-14.74c0-12.94-8.7-17.1-20.78-17.1h-24.66V817.07L1432.72,817.07z M1447.46,759.63h5.32
		c7.27,0,10.64,2.36,10.64,8.79c0,6.33-3.68,8.88-11.77,8.88h-4.2V759.63L1447.46,759.63z M1447.46,786.75h6.35
		c6.45,0,11.26,2.27,11.26,10.11c0,7.84-4.81,10.2-11.87,10.2h-5.73V786.75L1447.46,786.75z"/>
	<path class="st2" d="M1537.58,793.64v-2.93c0-15.59-3.68-25.79-20.16-25.79c-19.04,0-21.9,12.66-21.9,26.26
		c0,12.66,0.82,27.21,21.29,27.21c13.3,0,19.45-6.61,19.96-18.42h-12.69c-0.82,6.24-2.76,9.54-7.47,9.54
		c-5.22,0-6.96-5.86-6.96-11.81v-4.06H1537.58L1537.58,793.64z M1509.64,785.89v-1.98c0-4.72,1.64-10.11,7.27-10.11
		c5.83,0,6.86,4.35,7.16,12.09H1509.64L1509.64,785.89z"/>
	<path class="st2" d="M1550.95,800.44v1.79c0,9.73,4.4,16.16,20.26,16.16c11.87,0,20.47-5.29,20.47-15.97
		c0-7.65-3.28-11.81-12.18-14.55l-8.49-2.65c-4.71-1.42-6.14-3.5-6.14-5.95c0-3.59,3.07-5.48,6.65-5.48c4.61,0,6.24,2.55,6.24,7.65
		h12.69v-2.08c0-9.16-6.04-14.45-18.83-14.45c-14.53,0-20.26,6.9-20.26,15.3c0,7.18,3.99,11.62,11.77,14.17l9.93,3.31
		c2.76,0.94,5.12,2.46,5.12,5.76c0,4.06-2.87,6.05-7.16,6.05c-4.81,0-7.37-2.93-7.37-7.37v-1.7H1550.95L1550.95,800.44z"/>
	<path class="st2" d="M1610.16,766.24H1603v8.88h7.16v29.1c0,10.3,2.05,13.42,13.1,13.42c3.28,0,6.14-0.28,9.21-0.57V808
		c-0.92,0.09-2.05,0.19-3.17,0.19c-4.09,0-5.02-1.61-5.02-5.57v-27.49h8.19v-8.88h-8.19v-14.55h-14.12V766.24L1610.16,766.24z"/>
	<path class="st2" d="M1685.76,793.64v-2.93c0-15.59-3.68-25.79-20.16-25.79c-19.04,0-21.9,12.66-21.9,26.26
		c0,12.66,0.82,27.21,21.29,27.21c13.3,0,19.45-6.61,19.96-18.42h-12.69c-0.82,6.24-2.76,9.54-7.47,9.54
		c-5.22,0-6.96-5.86-6.96-11.81v-4.06H1685.76L1685.76,793.64z M1657.82,785.89v-1.98c0-4.72,1.64-10.11,7.27-10.11
		c5.83,0,6.86,4.35,7.16,12.09H1657.82L1657.82,785.89z"/>
	<path class="st2" d="M1701.48,817.07h14.12v-33.73c0-5.67,2.66-8.41,7.47-8.41c4.2,0,6.04,1.98,6.04,7.09v35.05h14.12v-37.7
		c0-10.01-5.22-14.45-14.02-14.45c-5.94,0-11.05,2.27-14.02,7.27h-0.2v-5.95h-13.51V817.07L1701.48,817.07z"/>
	<polygon class="st2" points="1761.82,802.33 1761.82,817.07 1775.33,817.07 1775.33,802.33 1761.82,802.33 	"/>
	<path class="st3" d="M394.19,531.82v278.94c0,2.08-1.7,3.78-3.78,3.78h-4.41c-2.08,0-3.78-1.7-3.78-3.78V531.89l5.85,3.25
		L394.19,531.82L394.19,531.82z"/>
	<path class="st3" d="M386,263h4.41c2.08,0,3.78,1.7,3.78,3.78v156.06c0,2.08-1.7,3.78-3.78,3.78H386c-2.08,0-3.78-1.7-3.78-3.78
		V266.78C382.21,264.7,383.92,263,386,263L386,263z"/>
	<path class="st3" d="M216.47,363.28l2.21-3.82c1.04-1.8,3.36-2.42,5.16-1.38l101.48,58.59l-4.02,1.91v9.59l-103.45-59.72
		C216.06,367.41,215.43,365.09,216.47,363.28L216.47,363.28z"/>
	<path class="st3" d="M356.71,474.8l2.2,3.82c1.04,1.8,0.42,4.13-1.38,5.17L151.87,602.52c-1.8,1.04-4.13,0.42-5.17-1.38l-2.2-3.82
		c-1.04-1.8-0.42-4.13,1.38-5.17l205.66-118.74C353.35,472.38,355.67,473,356.71,474.8L356.71,474.8z"/>
	<path class="st3" d="M688.46,284.63l2.21,3.82c1.04,1.8,0.42,4.12-1.38,5.16L456.41,428.06v-9.48l-4.17-1.94l231.05-133.39
		C685.09,282.21,687.42,282.83,688.46,284.63L688.46,284.63z"/>
	<path class="st3" d="M417.83,478.82l2.2-3.82c1.04-1.8,3.36-2.42,5.17-1.38l70.87,40.92c1.8,1.04,2.42,3.36,1.38,5.17l-2.2,3.82
		c-1.04,1.8-3.36,2.42-5.17,1.38l-70.87-40.92C417.41,482.95,416.79,480.62,417.83,478.82L417.83,478.82z"/>
</g>
</svg>
