<?xml version="1.0" encoding="UTF-8"?><svg id="Ebene_1" xmlns="http://www.w3.org/2000/svg" viewBox="0 0 600 150"><defs><style>.cls-1{fill:#fff;}.cls-2{fill:#f59b00;}.cls-3{fill:#00497d;}</style></defs><path class="cls-3" d="m120.723,72.333c0-.583.25-1.166.916-1.166.417,0,.833.25,1.25.416,4.165,2.083,7.331,3.332,12.079,3.332,4.415,0,9.08-1.583,9.08-6.747,0-3.832-3.165-5.914-5.998-7.914l-8.413-5.914c-4.582-3.248-7.247-6.581-7.247-12.412,0-10.579,8.497-15.66,18.243-15.66,3.582,0,8.664.833,11.995,2.165,1.166.5,1.417.834,1.417,2.083v5.998c0,.583-.25,1.166-.917,1.166-.5,0-.916-.166-1.333-.334-3.748-1.748-6.247-2.748-10.496-2.748-3.915,0-8.08,1.333-8.08,5.914,0,3.332,2.748,5.248,5.248,6.914l8.996,5.998c5.248,3.499,8.247,7.081,8.247,13.745,0,11.495-9.164,15.994-19.493,15.994-4.499,0-9.83-.834-13.995-2.749-1.249-.583-1.499-.999-1.499-2.416v-5.664Z"/><path class="cls-3" d="m182.114,40.178c3.083,0,6.248.417,9.164,1.249,1.582.417,4.082.834,4.082,2.916v4.499c0,.5-.25,1-.834,1-.5,0-1.166-.25-1.582-.5-2.832-1.417-5.998-2.249-9.164-2.249-9.246,0-12.578,6.081-12.578,14.661,0,8.163,2.999,14.494,12.078,14.494,3.416,0,6.914-.916,9.913-2.499.417-.25.917-.5,1.416-.5,1.166,0,.75,4.665.75,5.498,0,1.5-.167,1.666-1.417,2.249-3.248,1.5-8.58,2.333-12.161,2.333-13.246,0-20.576-8.164-20.576-21.159,0-12.661,7.913-21.991,20.908-21.991Z"/><path class="cls-3" d="m202.687,42.095c0-.583.5-1.083,1.083-1.083h6.747c1.666,0,1.333,1.249,1.333,2.499,1.083-.083,1.333-.166,2.333-.583,2.832-1.249,6.248-2.249,9.33-2.249.666,0,1.416.083,2.082.166,1.166.167,1.249.5,1.249,1.583v6.081c0,.834-.333,1.333-1.249,1.333-2.082,0-4.082-.667-6.247-.667-4.499,0-6.664,1.25-6.664,6.082v26.323c0,.583-.5,1.083-1.083,1.083h-7.83c-.583,0-1.083-.5-1.083-1.083v-39.484Z"/><path class="cls-3" d="m238.338,24.352c3.582,0,5.581,1.582,5.581,5.247,0,3.832-2.333,5.165-5.914,5.165-3.748,0-5.748-1.333-5.748-5.248,0-3.998,2.416-5.164,6.082-5.164Zm-5.248,17.743c0-.583.5-1.083,1.083-1.083h7.83c.583,0,1.083.5,1.083,1.083v39.484c0,.583-.5,1.083-1.083,1.083h-7.83c-.583,0-1.083-.5-1.083-1.083v-39.484Z"/><path class="cls-3" d="m251.998,42.095c0-.583.5-1.083,1.082-1.083h6.331c1.749,0,1.583.666,1.583,1.999,1.083,0,1.416-.25,2.333-.749,2.748-1.5,5.914-2.083,8.996-2.083,12.661,0,19.659,8.996,19.659,21.159,0,11.995-7.581,21.825-20.076,21.825-2.499,0-5.414-.583-7.664-1.833-.916-.5-1.166-.75-2.248-.75v17.494c0,.583-.5,1.083-1.083,1.083h-7.831c-.582,0-1.082-.5-1.082-1.083v-55.978Zm18.242,34.153c3.249,0,6.414-1.166,8.664-3.499,2.832-2.999,3.082-7.496,3.082-11.412,0-7.747-3.082-14.244-11.746-14.244-3.831,0-8.246,1.333-8.246,5.914v17.66c0,4.331,4.748,5.581,8.246,5.581Z"/><path class="cls-3" d="m296.727,41.012h3.916v-10.163c0-.583.5-1.083,1.083-1.083h7.83c.583,0,1.083.5,1.083,1.083v10.163h12.246c.582,0,1.082.5,1.082,1.083v4.581c0,.583-.5,1.083-1.082,1.083h-12.246v22.491c0,3.916,1.749,5.998,5.748,5.998,1.999,0,3.582-.5,5.414-1.249.333-.166.999-.333,1.333-.333.666,0,.833.416.833.999v4.165c0,1.166-.25,1.417-1.249,1.916-2.416,1.083-6.33,1.583-8.996,1.583-3.416,0-7.081-.666-9.83-2.832-2.748-2.165-3.248-5.331-3.248-8.663v-24.074c-6.081,0-4.998.666-4.998-5.664,0-.583.499-1.083,1.082-1.083Z"/><path class="cls-3" d="m347.134,27.758c.158-.589.736-1.176,1.408-1.176h12.526c4.708,0,9.091.588,11.72,3.951,2.115,2.774,2.447,6.558,1.388,10.51-2.725,10.173-11.569,14.629-20.903,14.629l14.06,24.719c.245.336.407.673.272,1.177-.248.925-1.302,1.092-2.058,1.092h-3.195c-.336,0-.544-.167-.728-.42l-15.075-26.569c-.122-.169-.246-.336-.285-.505-.353-.251-.879-.167-1.3-.167l-7.119,26.569c-.429,1.597-3.404,1.092-4.329,1.092-.589,0-.958-.504-.8-1.092l14.418-53.81Zm7.266,23.71c6.726,0,12.795-3.194,14.732-10.425,1.938-7.231-2.57-10.174-9.212-10.174h-8.491l-5.52,20.598h8.491Z"/><path class="cls-3" d="m383.368,41.883c.428-1.597,3.235-1.093,4.244-1.093.589,0,.958.505.801,1.093l-7.209,26.905c-1.915,7.146,1.168,11.014,8.231,11.014,4.034,0,11.171-.59,12.635-6.054l8.538-31.865c.428-1.597,3.236-1.093,4.245-1.093.589,0,1.064.42.884,1.093l-10.633,39.685c-.406,1.513-2.564,1.092-3.488,1.092-2.018,0,.25-2.185-1.264-2.185-.336,0-.717.167-1.077.252-.19.084-.465.167-.656.251-3.998,1.43-8.449,2.354-12.317,2.354-3.447,0-6.837-.84-9.025-3.027-2.827-2.942-2.424-6.641-1.23-11.098l7.322-27.325Z"/><path class="cls-3" d="m426.75,41.883c.405-1.513,2.562-1.093,3.487-1.093,1.85,0-.311,2.102,1.119,2.102.589,0,1.184-.336,1.755-.588,3.769-1.515,7.228-2.187,10.928-2.187,3.95,0,8.242.926,10.419,3.784,2.669,3.532,1.912,8.24.605,13.117l-6.578,24.55c-.429,1.597-3.321,1.092-4.329,1.092-.589,0-.958-.504-.8-1.092l6.893-25.729c2.073-7.734.071-12.191-7.999-12.191-3.362,0-11.07.842-12.331,5.55l-8.674,32.37c-.428,1.597-3.321,1.092-4.329,1.092-.589,0-.958-.504-.8-1.092l10.633-39.685Z"/><path class="cls-3" d="m469.291,41.883c.406-1.513,2.563-1.093,3.488-1.093,1.85,0-.312,2.102,1.118,2.102.589,0,1.184-.336,1.756-.588,3.767-1.515,7.226-2.187,10.926-2.187,3.952,0,8.243.926,10.42,3.784,2.669,3.532,1.912,8.24.605,13.117l-6.578,24.55c-.428,1.597-3.321,1.092-4.329,1.092-.589,0-.958-.504-.8-1.092l6.893-25.729c2.073-7.734.071-12.191-7.999-12.191-3.362,0-11.07.842-12.332,5.55l-8.673,32.37c-.429,1.597-3.32,1.092-4.329,1.092-.589,0-.958-.504-.8-1.092l10.633-39.685Z"/><path class="cls-3" d="m528.53,40.117c9.836,0,14.978,7.484,12.365,17.236l-.586,2.187c-.158.588-.798,1.093-1.387,1.093h-29.51c-1.177,4.708-2.248,9.332-.532,13.284,1.815,4.203,6.073,5.885,11.034,5.885,3.7,0,7.248-1.009,10.877-2.943.381-.168,1.356-.673,1.693-.673,1.009,0,.239,1.934.058,2.607-.946,3.531-11.641,4.54-13.995,4.54-12.948,0-18.087-8.743-14.708-21.355,3.041-11.35,12.415-21.861,24.689-21.861Zm7.305,16.985c1.752-7.483-.685-13.453-8.671-13.453-7.651,0-14.194,6.222-16.804,13.453h25.475Z"/><path class="cls-3" d="m552.691,41.883c.157-.588.798-1.093,1.386-1.093h2.1c2.018,0-.598,2.859,1,2.859.252,0,.55-.168.74-.251,4.324-2.018,8.685-2.608,12.889-2.608,2.27,0,1.292,1.766.819,3.532-.225.841-.718,1.43-1.644,1.43-1.933,0-4.399-.841-6.667-.841-4.288,0-6.756,1.681-7.928,6.054l-8.2,30.604c-.181.673-.882,1.092-1.471,1.092h-2.858c-.589,0-.958-.504-.8-1.092l10.633-39.685Z"/><path class="cls-3" d="m586.376,24.259c5.34,0,9.622,4.28,9.622,9.619,0,5.294-4.329,9.622-9.622,9.622s-9.621-4.328-9.621-9.622c0-5.339,4.283-9.619,9.621-9.619Zm0,17.989c4.621,0,8.37-3.751,8.37-8.37s-3.749-8.369-8.37-8.369-8.368,3.753-8.368,8.369,3.751,8.37,8.368,8.37Zm-3.27-13.181c0-.095.095-.192.192-.192h3.27c1.78,0,3.08.625,3.08,2.598,0,1.395-.627,2.358-2.069,2.55.241.193,1.154,1.637,1.397,1.971l1.587,2.359c.048.048.143.24.143.288,0,.193-.192.193-.333.193h-1.735c-.241-.146-2.645-3.897-2.981-4.378-.194-.336-.24-.239-.625-.239v4.425c0,.098-.099.193-.194.193h-1.539c-.097,0-.192-.095-.192-.193v-9.573Zm3.223,4.091c.912,0,1.395-.624,1.395-1.493s-.483-1.491-1.395-1.491h-1.298v2.983h1.298Z"/><path class="cls-2" d="m47.922,9.284C23.112,9.284,3,29.395,3,54.207s20.112,44.925,44.922,44.925,44.926-20.112,44.926-44.925S72.733,9.284,47.922,9.284Z"/><path class="cls-1" d="m26.806,82.999c-1.339,0-2.669-.572-3.595-1.682-1.656-1.984-1.39-4.935.595-6.591l24.911-20.791-13.094-20.455c-1.393-2.176-.759-5.071,1.418-6.464,2.177-1.394,5.071-.759,6.464,1.418l15.318,23.928c1.271,1.985.867,4.606-.943,6.116l-28.078,23.434c-.875.73-1.939,1.087-2.996,1.087Z"/><path class="cls-1" d="m68.205,82.882h-16.847c-2.584,0-4.68-2.096-4.68-4.68s2.095-4.68,4.68-4.68h16.847c2.584,0,4.68,2.095,4.68,4.68s-2.095,4.68-4.68,4.68Z"/><path class="cls-3" d="m136.974,110.665l-7.16,13.684v8.022h-2.543v-7.962l-6.978-13.744h2.891l4.859,9.809c.141.333.318.777.53,1.332h.03c.111-.343.308-.787.59-1.332l5.086-9.809h2.694Z"/><path class="cls-3" d="m151.036,124.56c0,2.473-.696,4.455-2.089,5.949-1.393,1.493-3.27,2.24-5.631,2.24-2.331,0-4.178-.747-5.54-2.24-1.332-1.443-1.998-3.346-1.998-5.707,0-2.694.757-4.778,2.271-6.252,1.402-1.372,3.279-2.059,5.631-2.059,2.311,0,4.115.717,5.411,2.15,1.297,1.433,1.945,3.405,1.945,5.918Zm-2.543.091c0-1.988-.449-3.502-1.347-4.541-.868-.999-2.084-1.499-3.648-1.499-1.544,0-2.78.505-3.708,1.514-.979,1.08-1.468,2.609-1.468,4.587,0,1.856.469,3.308,1.408,4.352.938,1.045,2.195,1.567,3.769,1.567,1.635,0,2.881-.53,3.739-1.59.837-1.029,1.256-2.492,1.256-4.39Z"/><path class="cls-3" d="m167.399,132.371h-2.482v-2.452h-.061c-1.029,1.887-2.619,2.831-4.768,2.831-3.704,0-5.555-2.205-5.555-6.615v-9.264h2.482v8.87c0,3.26,1.251,4.89,3.754,4.89,1.201,0,2.192-.437,2.974-1.31.782-.873,1.173-2.046,1.173-3.52v-8.931h2.482v15.5Z"/><path class="cls-3" d="m180.507,119.384c-.434-.333-1.065-.499-1.892-.499-1.009,0-1.857.453-2.543,1.361-.777,1.02-1.166,2.428-1.166,4.224v7.901h-2.482v-15.5h2.482v3.193h.061c.363-1.13.923-2.003,1.68-2.618.706-.565,1.499-.848,2.376-.848.656,0,1.15.07,1.483.212v2.573Z"/><path class="cls-3" d="m206.83,116.75l-.333,1.604h-3.936l-.969,4.526h4.253l-.409,1.619h-4.147l-1.332,6.01h-1.922l1.302-6.01h-3.784l-1.271,6.01h-1.892l1.271-6.01h-3.966l.303-1.619h3.996l.938-4.526h-4.193l.318-1.604h4.178l1.271-6.085h1.922l-1.271,6.085h3.814l1.302-6.085h1.862l-1.271,6.085h3.966Zm-6.161,1.604h-3.814l-.999,4.526h3.845l.969-4.526Z"/><path class="cls-3" d="m222.451,132.371h-12.276v-2.164h4.904v-16.863l-5.025,1.484v-2.361l7.508-2.286v20.026h4.889v2.164Z"/><path class="cls-3" d="m242.886,111.603c-.484-.272-1.035-.408-1.65-.408-1.736,0-2.604,1.095-2.604,3.284v2.392h3.633v2.104h-3.633v13.396h-2.482v-13.396h-2.634v-2.104h2.634v-2.513c0-1.705.53-3.042,1.589-4.011.908-.838,2.023-1.257,3.345-1.257.767,0,1.367.091,1.801.272v2.24Z"/><path class="cls-3" d="m259.006,124.56c0,2.473-.696,4.455-2.089,5.949-1.393,1.493-3.27,2.24-5.631,2.24-2.331,0-4.178-.747-5.54-2.24-1.332-1.443-1.998-3.346-1.998-5.707,0-2.694.757-4.778,2.271-6.252,1.402-1.372,3.279-2.059,5.631-2.059,2.311,0,4.115.717,5.411,2.15,1.297,1.433,1.945,3.405,1.945,5.918Zm-2.543.091c0-1.988-.449-3.502-1.347-4.541-.868-.999-2.084-1.499-3.648-1.499-1.544,0-2.78.505-3.708,1.514-.979,1.08-1.468,2.609-1.468,4.587,0,1.856.469,3.308,1.408,4.352.938,1.045,2.195,1.567,3.769,1.567,1.635,0,2.881-.53,3.739-1.59.837-1.029,1.256-2.492,1.256-4.39Z"/><path class="cls-3" d="m270.934,119.384c-.434-.333-1.065-.499-1.892-.499-1.009,0-1.857.453-2.543,1.361-.777,1.02-1.166,2.428-1.166,4.224v7.901h-2.482v-15.5h2.482v3.193h.061c.363-1.13.923-2.003,1.68-2.618.706-.565,1.499-.848,2.376-.848.656,0,1.15.07,1.483.212v2.573Z"/><path class="cls-3" d="m295.743,117.143c0,1.968-.651,3.598-1.953,4.89-1.433,1.412-3.406,2.119-5.918,2.119h-2.861v8.219h-2.543v-21.706h5.964c2.341,0,4.152.575,5.434,1.726,1.251,1.13,1.877,2.715,1.877,4.753Zm-2.664.136c0-2.875-1.695-4.313-5.086-4.313h-2.982v8.9h2.664c1.756,0,3.098-.409,4.026-1.226.918-.787,1.377-1.908,1.377-3.361Z"/><path class="cls-3" d="m312.424,124.56c0,2.473-.696,4.455-2.089,5.949-1.393,1.493-3.27,2.24-5.631,2.24-2.331,0-4.178-.747-5.54-2.24-1.332-1.443-1.998-3.346-1.998-5.707,0-2.694.757-4.778,2.271-6.252,1.402-1.372,3.279-2.059,5.631-2.059,2.311,0,4.114.717,5.411,2.15,1.297,1.433,1.945,3.405,1.945,5.918Zm-2.543.091c0-1.988-.449-3.502-1.348-4.541-.867-.999-2.083-1.499-3.647-1.499-1.544,0-2.78.505-3.708,1.514-.979,1.08-1.469,2.609-1.469,4.587,0,1.856.469,3.308,1.408,4.352.938,1.045,2.194,1.567,3.769,1.567,1.635,0,2.881-.53,3.739-1.59.837-1.029,1.256-2.492,1.256-4.39Z"/><path class="cls-3" d="m335.795,116.871l-4.646,15.5h-2.574l-3.193-11.096c-.111-.403-.191-.877-.242-1.422h-.061c-.03.353-.137.816-.318,1.393l-3.466,11.125h-2.482l-4.677-15.5h2.604l3.193,11.655c.101.403.172.868.212,1.393h.121c.03-.434.126-.908.288-1.423l3.557-11.625h2.271l3.224,11.686c.102.373.172.838.213,1.393h.121c.02-.394.101-.857.242-1.393l3.163-11.686h2.452Z"/><path class="cls-3" d="m350.871,125.242h-10.944c.04,1.735.505,3.067,1.393,3.996.888.928,2.109,1.393,3.663,1.393,1.746,0,3.346-.565,4.799-1.695v2.315c-1.353.999-3.148,1.499-5.389,1.499-2.119,0-3.8-.666-5.041-1.998-1.332-1.413-1.998-3.437-1.998-6.07,0-2.492.722-4.506,2.164-6.039,1.353-1.434,3.008-2.15,4.965-2.15,2.1,0,3.704.702,4.814,2.104,1.049,1.312,1.574,3.093,1.574,5.343v1.303Zm-2.543-2.104c-.021-1.413-.354-2.513-1-3.3-.676-.817-1.635-1.227-2.875-1.227-1.171,0-2.165.417-2.982,1.249-.817.833-1.322,1.925-1.514,3.277h8.371Z"/><path class="cls-3" d="m362.586,119.384c-.434-.333-1.064-.499-1.893-.499-1.009,0-1.856.453-2.543,1.361-.776,1.02-1.165,2.428-1.165,4.224v7.901h-2.482v-15.5h2.482v3.193h.061c.363-1.13.923-2.003,1.681-2.618.706-.565,1.498-.848,2.376-.848.656,0,1.15.07,1.483.212v2.573Z"/><path class="cls-3" d="m376.709,126.891c0,1.686-.561,3.048-1.68,4.087-1.271,1.181-3.113,1.771-5.525,1.771-.808,0-1.705-.127-2.694-.379s-1.721-.54-2.194-.863v-3.012c.676.605,1.523,1.09,2.543,1.453.948.333,1.846.5,2.693.5,2.785,0,4.178-1.085,4.178-3.255,0-.938-.353-1.771-1.059-2.497-.626-.637-1.792-1.438-3.497-2.407-1.786-1.009-3.037-1.978-3.754-2.906s-1.075-2.023-1.075-3.284c0-1.666.611-3.038,1.832-4.117,1.281-1.121,2.967-1.681,5.056-1.681,1.947,0,3.37.257,4.269.772v2.846c-1.141-.889-2.608-1.332-4.404-1.332-1.271,0-2.281.322-3.027.969-.707.605-1.061,1.377-1.061,2.315,0,1.009.323,1.852.969,2.528.545.564,1.63,1.296,3.255,2.194,1.776.979,3.058,1.923,3.845,2.831.888,1.019,1.332,2.174,1.332,3.466Z"/><path class="cls-3" d="m393.571,132.371h-2.482v-8.931c0-3.219-1.201-4.829-3.603-4.829-1.201,0-2.21.449-3.027,1.348-.848.938-1.271,2.149-1.271,3.633v8.779h-2.482v-22.947h2.482v10.021h.061c1.201-1.968,2.896-2.952,5.086-2.952,3.491,0,5.237,2.109,5.237,6.328v9.551Z"/><path class="cls-3" d="m410.586,125.242h-10.944c.04,1.735.505,3.067,1.393,3.996.888.928,2.109,1.393,3.663,1.393,1.746,0,3.346-.565,4.799-1.695v2.315c-1.353.999-3.148,1.499-5.389,1.499-2.119,0-3.8-.666-5.041-1.998-1.332-1.413-1.998-3.437-1.998-6.07,0-2.492.722-4.506,2.164-6.039,1.353-1.434,3.008-2.15,4.965-2.15,2.1,0,3.704.702,4.814,2.104,1.049,1.312,1.574,3.093,1.574,5.343v1.303Zm-2.543-2.104c-.021-1.413-.354-2.513-1-3.3-.676-.817-1.635-1.227-2.875-1.227-1.171,0-2.165.417-2.982,1.249-.817.833-1.322,1.925-1.514,3.277h8.371Z"/><path class="cls-3" d="m416.7,132.371h-2.482v-22.947h2.482v22.947Z"/><path class="cls-3" d="m424.208,132.371h-2.482v-22.947h2.482v22.947Z"/><path class="cls-3" d="m454.86,132.371h-2.815l-2.285-6.07h-9.219l-2.164,6.07h-2.816l8.295-21.706h2.635l8.37,21.706Zm-5.948-8.371l-3.406-9.232c-.091-.253-.207-.742-.348-1.469h-.061c-.092.615-.202,1.105-.334,1.469l-3.375,9.232h7.523Z"/><path class="cls-3" d="m470.24,132.371h-2.482v-2.452h-.061c-1.029,1.887-2.619,2.831-4.769,2.831-3.703,0-5.556-2.205-5.556-6.615v-9.264h2.482v8.87c0,3.26,1.252,4.89,3.754,4.89,1.201,0,2.192-.437,2.975-1.31s1.174-2.046,1.174-3.52v-8.931h2.482v15.5Z"/><path class="cls-3" d="m482.455,132.22c-.586.333-1.363.499-2.332.499-2.704,0-4.057-1.523-4.057-4.57v-9.174h-2.664v-2.104h2.664v-3.784c.787-.252,1.615-.52,2.482-.802v4.586h3.906v2.104h-3.906v8.75c0,1.039.177,1.778.53,2.217.354.439.943.658,1.771.658.616,0,1.15-.166,1.605-.499v2.119Z"/><path class="cls-3" d="m499.604,124.56c0,2.473-.696,4.455-2.089,5.949-1.393,1.493-3.27,2.24-5.631,2.24-2.331,0-4.178-.747-5.54-2.24-1.332-1.443-1.998-3.346-1.998-5.707,0-2.694.757-4.778,2.271-6.252,1.402-1.372,3.279-2.059,5.631-2.059,2.311,0,4.114.717,5.411,2.15,1.297,1.433,1.945,3.405,1.945,5.918Zm-2.543.091c0-1.988-.449-3.502-1.348-4.541-.867-.999-2.083-1.499-3.647-1.499-1.544,0-2.78.505-3.708,1.514-.979,1.08-1.469,2.609-1.469,4.587,0,1.856.469,3.308,1.408,4.352.938,1.045,2.194,1.567,3.769,1.567,1.635,0,2.881-.53,3.739-1.59.837-1.029,1.256-2.492,1.256-4.39Z"/><path class="cls-3" d="m525.458,132.371h-2.482v-8.9c0-1.786-.287-3.058-.863-3.814-.534-.696-1.402-1.045-2.604-1.045-1.069,0-1.973.482-2.709,1.446s-1.105,2.121-1.105,3.474v8.84h-2.482v-9.203c0-3.037-1.175-4.557-3.526-4.557-1.08,0-1.968.444-2.664,1.332-.727.919-1.09,2.114-1.09,3.588v8.84h-2.482v-15.5h2.482v2.452h.061c1.1-1.887,2.699-2.831,4.798-2.831,1.07,0,2.009.303,2.816.908.767.586,1.296,1.357,1.589,2.316,1.15-2.149,2.866-3.225,5.146-3.225,3.411,0,5.116,2.109,5.116,6.328v9.551Z"/><path class="cls-3" d="m541.109,132.371h-2.482v-2.422h-.061c-1.079,1.867-2.669,2.801-4.768,2.801-1.574,0-2.801-.435-3.678-1.303-.838-.816-1.257-1.882-1.257-3.193,0-2.896,1.705-4.581,5.116-5.056l4.646-.651c0-2.623-1.064-3.936-3.193-3.936-1.867,0-3.552.631-5.056,1.893v-2.543c.475-.343,1.206-.666,2.194-.969,1.101-.333,2.125-.5,3.073-.5,3.643,0,5.464,1.933,5.464,5.798v10.081Zm-2.482-7.841l-3.754.53c-1.361.191-2.295.529-2.8,1.014-.444.424-.666,1.085-.666,1.982,0,.747.265,1.363.795,1.848.529.484,1.254.727,2.172.727,1.251,0,2.272-.435,3.065-1.303.792-.867,1.188-1.952,1.188-3.254v-1.544Z"/><path class="cls-3" d="m552.978,132.22c-.586.333-1.363.499-2.332.499-2.704,0-4.057-1.523-4.057-4.57v-9.174h-2.664v-2.104h2.664v-3.784c.787-.252,1.615-.52,2.482-.802v4.586h3.906v2.104h-3.906v8.75c0,1.039.177,1.778.53,2.217.354.439.943.658,1.771.658.616,0,1.15-.166,1.605-.499v2.119Z"/><path class="cls-3" d="m559.198,111.316c0,.453-.159.837-.477,1.15-.318.312-.704.469-1.158.469-.444,0-.825-.151-1.143-.454-.318-.303-.478-.691-.478-1.165,0-.455.159-.835.478-1.144.317-.308.698-.462,1.143-.462.454,0,.84.154,1.158.462.317.309.477.688.477,1.144Zm-.424,21.055h-2.482v-15.5h2.482v15.5Z"/><path class="cls-3" d="m577.877,124.56c0,2.473-.696,4.455-2.089,5.949-1.393,1.493-3.27,2.24-5.631,2.24-2.331,0-4.178-.747-5.54-2.24-1.332-1.443-1.998-3.346-1.998-5.707,0-2.694.757-4.778,2.271-6.252,1.402-1.372,3.279-2.059,5.631-2.059,2.311,0,4.114.717,5.411,2.15,1.297,1.433,1.945,3.405,1.945,5.918Zm-2.543.091c0-1.988-.449-3.502-1.348-4.541-.867-.999-2.083-1.499-3.647-1.499-1.544,0-2.78.505-3.708,1.514-.979,1.08-1.469,2.609-1.469,4.587,0,1.856.469,3.308,1.408,4.352.938,1.045,2.194,1.567,3.769,1.567,1.635,0,2.881-.53,3.739-1.59.837-1.029,1.256-2.492,1.256-4.39Z"/><path class="cls-3" d="m594.588,132.371h-2.482v-8.84c0-3.279-1.201-4.92-3.603-4.92-1.241,0-2.269.465-3.08,1.393-.812.929-1.219,2.104-1.219,3.527v8.84h-2.482v-15.5h2.482v2.573h.061c1.16-1.968,2.855-2.952,5.086-2.952,1.705,0,3.005.556,3.897,1.666.894,1.109,1.34,2.684,1.34,4.723v9.49Z"/></svg>